<?xml version="1.0" encoding="UTF-8" standalone="no"?>
<!-- Created with Inkscape (http://www.inkscape.org/) -->

<svg
   width="120mm"
   height="120mm"
   viewBox="0 0 120 120"
   version="1.1"
   id="svg1"
   xml:space="preserve"
   sodipodi:docname="favicon.svg"
   inkscape:version="1.3 (0e150ed6c4, 2023-07-21)"
   inkscape:export-filename="favicon.png"
   inkscape:export-xdpi="96"
   inkscape:export-ydpi="96"
   xmlns:inkscape="http://www.inkscape.org/namespaces/inkscape"
   xmlns:sodipodi="http://sodipodi.sourceforge.net/DTD/sodipodi-0.dtd"
   xmlns="http://www.w3.org/2000/svg"
   xmlns:svg="http://www.w3.org/2000/svg"><sodipodi:namedview
     id="namedview1"
     pagecolor="#ffffff"
     bordercolor="#000000"
     borderopacity="0.25"
     inkscape:showpageshadow="2"
     inkscape:pageopacity="0.0"
     inkscape:pagecheckerboard="0"
     inkscape:deskcolor="#d1d1d1"
     inkscape:document-units="mm"
     showguides="true"
     inkscape:zoom="0.16859393"
     inkscape:cx="-77.108354"
     inkscape:cy="-97.868295"
     inkscape:window-width="1920"
     inkscape:window-height="974"
     inkscape:window-x="-11"
     inkscape:window-y="-11"
     inkscape:window-maximized="1"
     inkscape:current-layer="layer1"><sodipodi:guide
       position="37.647365,86.218393"
       orientation="0,-1"
       id="guide4"
       inkscape:locked="false" /></sodipodi:namedview><defs
     id="defs1" /><g
     inkscape:label="Layer 1"
     inkscape:groupmode="layer"
     id="layer1"
     transform="translate(-66.178936,-18.369198)"><path
       id="path3"
       style="fill:#e76e25;fill-opacity:1"
       d="m 123.31692,35.47339 c -0.83167,0.25523 -1.43179,0.658678 -2.16059,1.463993 -0.99297,1.097205 -1.38475,3.512288 -1.56218,9.634038 l -0.23667,8.169527 -8.02639,0.409794 c -9.52723,0.486605 -10.20521,1.06501 -9.61233,8.198983 0.29604,3.562106 1.35687,4.028768 9.72137,4.275708 l 7.91735,0.233577 0.40979,19.503719 c 0.33907,16.131671 0.62299,19.637881 1.64021,20.279901 0.54231,0.34228 1.46987,0.64323 2.28772,0.70021 1.6575,0.1155 3.33641,0.14535 5.05912,0 0.81694,-0.0689 1.7454,-0.35793 2.28771,-0.70021 1.01722,-0.64202 1.30114,-4.14823 1.64021,-20.279901 l 0.4098,-19.503719 7.91734,-0.233577 c 8.36451,-0.24694 9.42533,-0.713602 9.72137,-4.275708 0.59288,-7.133973 -0.0851,-7.712374 -9.61233,-8.198983 l -8.02638,-0.409794 -0.23668,-8.169527 c -0.17743,-6.121754 -0.56921,-8.536829 -1.56218,-9.634038 -0.7288,-0.805319 -1.32892,-1.208763 -2.16059,-1.463993 -1.85325,-0.568739 -3.96242,-0.568739 -5.81567,0 z"
       sodipodi:nodetypes="ascccscccsssscccscccsaa" /><path
       id="path1"
       style="display:inline;fill:#ffca05;fill-opacity:1"
       d="m 79.215767,66.539256 c -5.787176,0 -6.068364,0.91381 -6.068364,19.70319 0,11.60945 0.283828,16.417474 1.024744,17.353984 0.773976,0.97831 3.132075,1.39707 9.633521,1.71101 6.555502,0.31654 9.953905,0.92551 14.247709,2.55333 5.894863,2.23479 13.977173,7.54799 18.091923,11.89333 3.27114,3.45449 4.43854,2.15451 2.53679,-2.82515 -1.97562,-5.17307 -9.88402,-13.43837 -15.95355,-16.6734 -2.69795,-1.438014 -7.598166,-3.297804 -10.889254,-4.133084 l -5.983614,-1.51877 -0.227377,-12.55737 c -0.263506,-14.56336 -0.653792,-15.50707 -6.412528,-15.50707 z" /><path
       id="path1-8"
       style="display:inline;fill:#ffca05;fill-opacity:1"
       d="m 173.1421,66.539256 c 5.78718,0 6.06837,0.91381 6.06837,19.703193 0,11.60945 -0.28383,16.417471 -1.02475,17.353981 -0.77397,0.97831 -3.13207,1.39707 -9.63352,1.71101 -6.5555,0.31654 -9.9539,0.92551 -14.24771,2.55333 -5.89486,2.23479 -13.97717,7.54799 -18.09192,11.89333 -3.27114,3.45449 -4.43854,2.15451 -2.53679,-2.82515 1.97562,-5.17307 9.88402,-13.43837 15.95355,-16.6734 2.69795,-1.438011 7.59817,-3.297801 10.88926,-4.133081 l 5.98361,-1.51877 0.22738,-12.55737 c 0.2635,-14.563363 0.65379,-15.507073 6.41252,-15.507073 z" /></g></svg>
