<?xml version="1.0" encoding="UTF-8" standalone="no"?>
<!-- Created with Inkscape (http://www.inkscape.org/) -->

<svg
   width="143.53317mm"
   height="143.53317mm"
   viewBox="0 0 143.53317 143.53317"
   version="1.1"
   id="svg1"
   xml:space="preserve"
   sodipodi:docname="admin_dashboard.svg"
   inkscape:version="1.3 (0e150ed6c4, 2023-07-21)"
   inkscape:export-filename="favicon.png"
   inkscape:export-xdpi="96"
   inkscape:export-ydpi="96"
   xmlns:inkscape="http://www.inkscape.org/namespaces/inkscape"
   xmlns:sodipodi="http://sodipodi.sourceforge.net/DTD/sodipodi-0.dtd"
   xmlns:xlink="http://www.w3.org/1999/xlink"
   xmlns="http://www.w3.org/2000/svg"
   xmlns:svg="http://www.w3.org/2000/svg"><sodipodi:namedview
     id="namedview1"
     pagecolor="#ffffff"
     bordercolor="#000000"
     borderopacity="0.25"
     inkscape:showpageshadow="2"
     inkscape:pageopacity="0.0"
     inkscape:pagecheckerboard="0"
     inkscape:deskcolor="#d1d1d1"
     inkscape:document-units="mm"
     showguides="true"
     inkscape:zoom="0.47685564"
     inkscape:cx="-78.640151"
     inkscape:cy="389.00661"
     inkscape:window-width="1920"
     inkscape:window-height="974"
     inkscape:window-x="-11"
     inkscape:window-y="-11"
     inkscape:window-maximized="1"
     inkscape:current-layer="layer1"><sodipodi:guide
       position="-26.56978,143.87805"
       orientation="0,-1"
       id="guide4"
       inkscape:locked="false" /><sodipodi:guide
       position="-28.257863,361.67588"
       orientation="1,0"
       id="guide15"
       inkscape:locked="false" /></sodipodi:namedview><defs
     id="defs1"><linearGradient
       id="linearGradient16"
       inkscape:collect="always"><stop
         style="stop-color:#645d7d;stop-opacity:1;"
         offset="0"
         id="stop15" /><stop
         style="stop-color:#807d92;stop-opacity:1;"
         offset="1"
         id="stop16" /></linearGradient><linearGradient
       id="linearGradient10"
       inkscape:collect="always"><stop
         style="stop-color:#757f8e;stop-opacity:1;"
         offset="0"
         id="stop10" /><stop
         style="stop-color:#8e95a1;stop-opacity:1;"
         offset="1"
         id="stop11" /></linearGradient><linearGradient
       id="linearGradient8"
       inkscape:collect="always"><stop
         style="stop-color:#645d7d;stop-opacity:1;"
         offset="0"
         id="stop8" /><stop
         style="stop-color:#43404d;stop-opacity:1;"
         offset="1"
         id="stop9" /></linearGradient><linearGradient
       id="linearGradient6"
       inkscape:collect="always"><stop
         style="stop-color:#ff7171;stop-opacity:1;"
         offset="0"
         id="stop6" /><stop
         style="stop-color:#ff3737;stop-opacity:1;"
         offset="1"
         id="stop7" /></linearGradient><linearGradient
       id="linearGradient2"
       inkscape:collect="always"><stop
         style="stop-color:#eff2f8;stop-opacity:1;"
         offset="0"
         id="stop2" /><stop
         style="stop-color:#d8dfea;stop-opacity:1;"
         offset="1"
         id="stop3" /></linearGradient><linearGradient
       inkscape:collect="always"
       xlink:href="#linearGradient2"
       id="linearGradient3"
       x1="192.74725"
       y1="119.3968"
       x2="228.10809"
       y2="170.90323"
       gradientUnits="userSpaceOnUse"
       gradientTransform="matrix(0.75507995,0,0,0.75507995,53.293419,25.902606)" /><linearGradient
       inkscape:collect="always"
       xlink:href="#linearGradient6"
       id="linearGradient7"
       x1="192.3447"
       y1="101.60403"
       x2="204.39915"
       y2="110.20421"
       gradientUnits="userSpaceOnUse"
       gradientTransform="matrix(0.75507995,0,0,0.75507995,53.293419,27.526061)" /><filter
       inkscape:collect="always"
       style="color-interpolation-filters:sRGB"
       id="filter7"
       x="-0.018352213"
       y="-0.054444892"
       width="1.0367044"
       height="1.1088898"><feGaussianBlur
         inkscape:collect="always"
         stdDeviation="0.53402026"
         id="feGaussianBlur7" /></filter><linearGradient
       inkscape:collect="always"
       xlink:href="#linearGradient16"
       id="linearGradient9"
       x1="143.75192"
       y1="121.97175"
       x2="243.2581"
       y2="121.97175"
       gradientUnits="userSpaceOnUse"
       gradientTransform="matrix(0.75507995,0,0,0.75507995,53.293419,25.902606)" /><linearGradient
       inkscape:collect="always"
       xlink:href="#linearGradient10"
       id="linearGradient11"
       x1="170.84749"
       y1="81.770561"
       x2="216.16255"
       y2="81.770561"
       gradientUnits="userSpaceOnUse"
       gradientTransform="matrix(0.75507995,0,0,0.75507995,53.293419,25.902606)" /><linearGradient
       inkscape:collect="always"
       xlink:href="#linearGradient8"
       id="linearGradient12"
       gradientUnits="userSpaceOnUse"
       x1="143.75192"
       y1="121.97175"
       x2="243.2581"
       y2="121.97175"
       gradientTransform="matrix(0.75507995,0,0,0.75507995,103.94278,38.433488)" /><filter
       inkscape:collect="always"
       style="color-interpolation-filters:sRGB"
       id="filter15"
       x="-0.21017291"
       y="-0.21017291"
       width="1.4203458"
       height="1.4203458"><feGaussianBlur
         inkscape:collect="always"
         stdDeviation="9.7438908"
         id="feGaussianBlur15" /></filter></defs><g
     inkscape:label="Layer 1"
     inkscape:groupmode="layer"
     id="layer1"
     transform="translate(-130.39608,-52.495694)"><circle
       style="mix-blend-mode:normal;fill:#416283;fill-opacity:1;stroke:none;stroke-width:0.436981;stroke-linecap:round;stroke-linejoin:round;stroke-miterlimit:3.1;paint-order:stroke markers fill;filter:url(#filter15)"
       id="path12-9"
       cx="-73.41185"
       cy="44.895531"
       r="55.633568"
       transform="matrix(0.9082205,0,0,0.9082205,268.83682,83.487242)" /><circle
       style="fill:#f5fefd;fill-opacity:1;stroke:none;stroke-width:0.396875;stroke-linecap:round;stroke-linejoin:round;stroke-miterlimit:3.1;paint-order:stroke markers fill"
       id="path12"
       cx="199.40517"
       cy="119.86665"
       r="54.652721" /><rect
       style="fill:url(#linearGradient3);fill-opacity:1;stroke-width:0.396875;stroke-linecap:round;stroke-linejoin:round;stroke-miterlimit:3.1;paint-order:stroke markers fill"
       id="rect2"
       width="57.1875"
       height="68.499313"
       x="170.71573"
       y="89.000153"
       rx="4"
       ry="4" /><rect
       style="mix-blend-mode:normal;fill:#ffffff;fill-opacity:1;stroke:none;stroke-width:0.487021;stroke-linecap:round;stroke-linejoin:round;stroke-miterlimit:3.1;paint-order:stroke markers fill;filter:url(#filter7)"
       id="rect5"
       width="69.836189"
       height="23.540291"
       x="158.46019"
       y="95.659813"
       rx="5.2974524"
       ry="4.5482173"
       transform="matrix(0.75507995,0,0,0.87946548,53.293419,14.163326)" /><path
       id="path1"
       style="fill:url(#linearGradient9);stroke:none;stroke-width:0.999998"
       d="m 199.39581,82.233817 c -24.79113,0 -26.11067,0.01811 -26.87218,0.364055 -1.0001,0.454337 -2.00998,1.583984 -2.29749,2.570627 -0.13454,0.461663 -0.19588,2.142539 -0.15881,4.348761 l 0.0605,3.596069 23.57423,0.10106 c 12.9658,0.05565 25.98515,0.123048 28.93165,0.149838 3.40573,0.03096 5.49807,-0.02658 5.74372,-0.158031 0.36068,-0.193021 0.3863,-0.453365 0.3863,-3.902374 0,-4.022996 -0.12723,-4.654805 -1.15928,-5.755426 -0.29635,-0.316026 -0.89847,-0.74118 -1.33799,-0.944671 -0.76493,-0.354148 -1.91483,-0.369908 -26.87063,-0.369908 z m 32.0548,24.568443 c -1.76673,-0.003 -2.68444,0.0729 -2.84689,0.23529 -0.13515,0.13514 -0.23958,0.78248 -0.23958,1.48393 0,1.78271 0.13444,1.87256 2.81216,1.87256 h 2.18433 l -0.10184,39.65664 -67.82584,0.10106 v -39.7577 l 2.14765,-0.003 c 1.18119,-0.002 2.26405,-0.0771 2.40635,-0.1674 0.1849,-0.11729 0.2419,-0.61515 0.19978,-1.74497 l -0.0589,-1.58069 H 167.231 c -2.53752,0 -2.98078,0.0495 -3.575,0.39957 -0.94519,0.55674 -1.45242,1.31069 -1.63727,2.43484 -0.1503,0.91401 -0.34404,43.37227 0.0581,43.7744 0.35278,0.34875 74.28915,0.34878 74.63793,0 0.37463,-0.37461 0.32663,-43.31969 -0.0495,-44.37453 -0.66239,-1.85727 -1.70689,-2.32384 -5.21462,-2.32988 z m -46.95024,16.24709 c -4.73839,0 -9.47697,0.0861 -9.6496,0.2587 -0.35934,0.35934 -0.29157,1.30853 0.11004,1.54245 0.22334,0.13009 3.68139,0.20576 9.57508,0.20954 8.12586,0.005 9.26305,-0.0313 9.53956,-0.30787 0.37262,-0.3726 0.41071,-1.10794 0.0745,-1.44412 -0.17263,-0.17263 -4.9112,-0.2587 -9.6496,-0.2587 z m 0,7.19408 c -4.73839,0 -9.47697,0.0861 -9.6496,0.25871 -0.35934,0.35933 -0.29157,1.30853 0.11004,1.54245 0.22334,0.13009 3.68139,0.20576 9.57508,0.20954 8.12586,0.005 9.26305,-0.0313 9.53956,-0.30787 0.37262,-0.3726 0.41071,-1.10794 0.0745,-1.44412 -0.17263,-0.17263 -4.9112,-0.25871 -9.6496,-0.25871 z m 0,6.33682 c -4.73839,0 -9.47697,0.0861 -9.6496,0.25871 -0.35934,0.35934 -0.29157,1.30854 0.11004,1.54245 0.22334,0.1301 3.68139,0.20576 9.57508,0.20954 8.12586,0.005 9.26305,-0.0313 9.53956,-0.30787 0.37262,-0.3726 0.41071,-1.10794 0.0745,-1.44412 -0.17263,-0.17263 -4.9112,-0.25871 -9.6496,-0.25871 z m 0,6.49759 c -4.73839,0 -9.47697,0.0861 -9.6496,0.2587 -0.35934,0.35934 -0.29157,1.30854 0.11004,1.54246 0.22334,0.13009 3.68139,0.20576 9.57508,0.20953 8.12586,0.005 9.26305,-0.0313 9.53956,-0.30787 0.37262,-0.3726 0.41071,-1.10793 0.0745,-1.44412 -0.17263,-0.17262 -4.9112,-0.2587 -9.6496,-0.2587 z"
       sodipodi:nodetypes="ssscccsssssssssscccccsscscscsssssscssscsssssssssssssssssscsss" /><path
       d="m 222.39763,127.04168 c -0.74515,-0.0141 -1.50748,0.039 -1.71492,0.17051 -0.45422,0.28786 -0.16693,0.87416 0.54589,1.11402 l 0.67622,0.22749 -2.2573,2.34782 c -1.24137,1.29129 -2.42086,2.43562 -2.62136,2.54292 -0.27811,0.14884 -1.09977,-0.0919 -3.46535,-1.0149 -2.76143,-1.07746 -3.1524,-1.18168 -3.57227,-0.95443 -1.0604,0.57396 -6.51608,4.47072 -6.6162,4.72569 -0.0594,0.15128 -0.005,0.39851 0.11979,0.54941 0.12523,0.15089 0.29322,0.2743 0.37343,0.2743 0.0802,0 1.5699,-0.98892 3.31044,-2.19759 1.74053,-1.20868 3.24446,-2.1976 3.34166,-2.1976 0.0972,0 1.48834,0.53941 3.09154,1.19869 1.60318,0.65927 3.09098,1.19869 3.30654,1.19869 0.24239,0 1.41944,-1.06648 3.08491,-2.79538 1.48105,-1.53744 2.7731,-2.7459 2.87108,-2.68535 0.098,0.0606 0.17793,0.36482 0.17793,0.67622 0,0.63458 0.49152,0.94726 0.92438,0.58802 0.3543,-0.29406 0.38275,-3.18715 0.0347,-3.53519 -0.13799,-0.13799 -0.86598,-0.21926 -1.61113,-0.23334 z"
       style="fill:url(#linearGradient12);stroke:none;stroke-width:0.999998"
       id="path1-6" /><path
       d="m 221.05709,135.21202 c -0.78395,0.0143 -1.55753,0.0951 -1.7335,0.23166 -0.11594,0.0899 0.0409,2.56586 -0.051,5.40494 -0.15216,4.70217 -0.34254,5.02077 0.13945,5.41802 0.27405,0.22588 0.57108,0.24038 1.76516,0.24038 2.23328,0 1.89288,-0.15336 1.85002,-5.73048 -0.0267,-3.47441 0.16109,-5.19918 -0.1734,-5.39723 -0.21844,-0.12936 -1.01285,-0.18159 -1.79681,-0.16729 z"
       style="fill:#7a53ff;fill-opacity:1;stroke:none;stroke-width:0.999998"
       id="path1-7" /><path
       d="m 214.71598,139.54447 c -1.49421,0 -1.572,0.0225 -1.75824,0.51233 -0.25977,0.68335 -0.25008,5.40405 0.0121,5.89395 0.17721,0.33108 0.42902,0.3863 1.75824,0.3863 0.94016,0 1.64572,-0.0943 1.79101,-0.23959 0.33461,-0.33462 0.33461,-5.97878 0,-6.3134 -0.14561,-0.14561 -0.85363,-0.23959 -1.80311,-0.23959 z"
       style="fill:#4ddb7a;fill-opacity:1;stroke:none;stroke-width:0.999998"
       id="path1-8" /><path
       d="m 207.91373,138.00622 c -1.49421,0 -1.572,0.0279 -1.75824,0.63524 -0.25977,0.84727 -0.25008,6.70022 0.0121,7.30764 0.17721,0.4105 0.42902,0.47916 1.75824,0.47916 0.94016,0 1.64572,-0.11717 1.79101,-0.29733 0.33462,-0.41488 0.33462,-7.41288 0,-7.82777 -0.14561,-0.18054 -0.85363,-0.29694 -1.80311,-0.29694 z"
       style="fill:#ff4b4b;fill-opacity:1;stroke:none;stroke-width:0.999998"
       id="path1-3" /><path
       style="font-size:19.05px;line-height:1;font-family:Gotham-Bold;-inkscape-font-specification:Gotham-Bold;text-align:center;letter-spacing:0px;text-anchor:middle;fill:url(#linearGradient7);stroke-width:0.396875;stroke-linecap:round;stroke-linejoin:round;stroke-miterlimit:3.1;paint-order:stroke markers fill"
       d="m 178.75434,103.57381 h 2.04257 l 4.31528,10.14091 h -2.31586 l -0.9206,-2.25833 h -4.25774 l -0.92059,2.25833 h -2.25834 z m 2.33026,5.92632 -1.33774,-3.26523 -1.33774,3.26523 z m 5.58111,-5.8544 h 3.92691 q 1.19389,0 2.17202,0.38837 0.97813,0.37399 1.68296,1.05005 0.71922,0.67606 1.10759,1.59666 0.38838,0.90621 0.38838,1.97064 v 0.0288 q 0,1.06444 -0.38838,1.98503 -0.38837,0.9206 -1.10759,1.59666 -0.70483,0.67606 -1.68296,1.06443 -0.97813,0.38838 -2.17202,0.38838 h -3.92691 z m 3.92691,8.06957 q 0.67606,0 1.23704,-0.21576 0.56099,-0.21576 0.96375,-0.61852 0.40276,-0.40276 0.61852,-0.94937 0.21577,-0.56098 0.21577,-1.22266 v -0.0288 q 0,-0.67606 -0.21577,-1.22266 -0.21576,-0.56099 -0.61852,-0.96375 -0.40276,-0.40276 -0.96375,-0.61852 -0.56098,-0.23015 -1.23704,-0.23015 h -1.71173 v 6.07016 z m 7.32158,-8.06957 h 2.38779 l 2.64671,4.25774 2.64671,-4.25774 h 2.38779 v 10.06899 h -2.2008 v -6.57362 l -2.8337,4.3009 h -0.0575 l -2.80493,-4.25774 v 6.53046 h -2.17203 z m 12.58624,0 h 2.21518 v 10.06899 h -2.21518 z m 4.73244,0 h 2.04256 l 4.71804,6.19962 v -6.19962 h 2.18641 v 10.06899 h -1.88434 l -4.87626,-6.401 v 6.401 h -2.18641 z"
       id="text5"
       aria-label="ADMIN" /><rect
       style="fill:url(#linearGradient11);stroke:none;stroke-width:0.396875;stroke-linecap:round;stroke-linejoin:round;stroke-miterlimit:3.1;paint-order:stroke markers fill"
       id="rect7"
       width="34.216492"
       height="4.295577"
       x="182.29692"
       y="85.498131"
       rx="4"
       ry="4" /></g></svg>
